<svg id="Layer_1" data-name="Layer 1" xmlns="http://www.w3.org/2000/svg" viewBox="0 0 3000 1214.81"><defs><style>.cls-1{font-size:344.2px;font-family:SanchezCondensedBold, Sanchez Condensed;}.cls-1,.cls-2,.cls-5{fill:#3e5599;}.cls-2{font-size:117.02px;font-family:Montserrat-Regular, Montserrat;}.cls-3{fill:#144a8c;}.cls-4{fill:#ef4176;}</style></defs><title>inventive nextSVG</title><text class="cls-1" transform="translate(131.7 724.85)">inventiveNE</text><text class="cls-2" transform="translate(408.13 888.45)">LEARN<tspan class="cls-3" x="410.86" y="0"> </tspan><tspan x="441.52" y="0">|</tspan><tspan class="cls-3" x="476.04" y="0"> </tspan><tspan class="cls-4" x="506.7" y="0">EARN</tspan><tspan x="848.63" y="0" xml:space="preserve"> |</tspan><tspan class="cls-3" x="913.81" y="0"> </tspan><tspan x="944.47" y="0">REPEAT</tspan></text><path class="cls-4" d="M2115.48,364.79,1880.75,230.17S2044,40,2303.94,56c327.34,20.12,572.74,334.21,519.88,655.29C2791.07,910.22,2647.11,1098,2444.45,1143c-203.58,45.24-398.17,2.19-557.09-140l231.26-143.35c86,54.16,200.9,58.87,291.05,11.93s152.17-143.77,157.12-245.28C2579.21,371.29,2318.69,276.69,2115.48,364.79Z"/><path class="cls-5" d="M2028.15,916c128.73,114.09,316.17,132,460.87,45.42,153.35-91.79,204.69-273.7,178.75-416.36-54.83-301.48-404.95-399-641.69-231.31L2098,355.23c6.51,3.75,13.2,7.57,20.62,8.75,11,1.75,22-2.54,32.5-6.28,119.15-42.47,268-27.8,350.85,75.81,69.6,87,79.66,212.51,32.44,312.22-75.36,159.15-271,198.68-416,114.18Z"/><path class="cls-4" d="M2160.15,604.54q-40.23-83.26-80.48-166.54h-89.39l92.3,172.24-98.13,182.62h85.61Z"/><path class="cls-5" d="M2346.61,792.85H2234.4a6.36,6.36,0,0,1-4.79-2.23,8,8,0,0,1-2.05-5.68v-41.5a8,8,0,0,1,2.05-5.68,6.35,6.35,0,0,1,4.79-2.22h25.09V495.43H2218v46.94a9,9,0,0,1-2.05,5.93,6.09,6.09,0,0,1-4.79,2.47h-44.7a6.07,6.07,0,0,1-4.79-2.47,9,9,0,0,1-2.06-5.93V446a8,8,0,0,1,2.06-5.68,6.33,6.33,0,0,1,4.79-2.22h246.77q6.38,0,6.38,7.9v96.34q0,8.4-6.38,8.4H2368.5q-6.84,0-6.84-8.4V495.43h-40.14V735.54h25.09a6.35,6.35,0,0,1,4.79,2.22,8,8,0,0,1,2,5.68v41.5a8,8,0,0,1-2,5.68A6.36,6.36,0,0,1,2346.61,792.85Z"/></svg>